<svg fill="#FFFFFF" xmlns="http://www.w3.org/2000/svg" xmlns:xlink="http://www.w3.org/1999/xlink" version="1.1" x="0px" y="0px" viewBox="0 0 100 125" enable-background="new 0 0 100 100" xml:space="preserve">
  <path d="M40.93,60.91c0.119-0.476,0.618-0.865,1.107-0.867l17.518-0.061c0.49-0.002,0.629,0.3,0.31,0.672l-0.688,0.802  c-0.32,0.371-0.843,0.979-1.162,1.351L42.314,81.063c-0.319,0.372-0.98,0.655-1.471,0.631l-4.182-0.206  c-0.488-0.023-0.791-0.432-0.672-0.906L40.93,60.91z"/>
  <path d="M29.628,56.435c-0.489-0.001-1.167,0.286-1.507,0.64l-7.951,8.29c-0.34,0.354-1.01,0.563-1.49,0.468l-1.186-0.237  c-0.48-0.096-0.773-0.563-0.65-1.036l3.366-13.031c0.122-0.474,0.11-1.247-0.028-1.717l-4.189-14.314  c-0.138-0.471,0.145-0.93,0.625-1.02l1.376-0.258c0.481-0.091,1.14,0.137,1.462,0.506l8.5,9.701c0.322,0.368,0.988,0.67,1.477,0.67  H42.31c0.489,0,0.766-0.38,0.612-0.846l-7.945-24.201c-0.152-0.466,0.122-0.876,0.61-0.913l3.501-0.26  c0.487-0.036,1.14,0.246,1.447,0.626L61.01,44.794c0.308,0.382,0.961,0.694,1.45,0.696c0,0,11.177,0.045,15.231,0.875  c4.057,0.832,7.33,2.444,7.232,5.277c-0.1,2.834-2.738,4.166-6.709,4.594C74.244,56.662,29.628,56.435,29.628,56.435z"/>
</svg>